PathFileType	4	(X/Y/Z)	 s11c0203.trc
DataRate	CameraRate	NumFrames	NumMarkers	Units	OrigDataRate	OrigDataStartFrame	OrigNumFrames
200	200	6	48	mm	200	1251	2000
Frame#	Time	racr			lacr			c7			jug			rlel			rdr			llel			ldr			s2			lic			ric			lasi			rasi			rpsi			lpsi			rgt			lgt			rth1			rth2			rth3			rth4			rlfc			rmfc			rsh1			rsh2			rsh3			rsh4			rlmal			rcal			rtoe			rmt5			lth1			lth2			lth4			lth3			llfc			lmfc			llmal			lcal			lmt5			lsh1			lsh2			lsh3			lsh4			ltoe			SBIKE			LBIKE			RBIKE			
		X1	Y1	Z1	X2	Y2	Z2	X3	Y3	Z3	X4	Y4	Z4	X5	Y5	Z5	X6	Y6	Z6	X7	Y7	Z7	X8	Y8	Z8	X9	Y9	Z9	X10	Y10	Z10	X11	Y11	Z11	X12	Y12	Z12	X13	Y13	Z13	X14	Y14	Z14	X15	Y15	Z15	X16	Y16	Z16	X17	Y17	Z17	X18	Y18	Z18	X19	Y19	Z19	X20	Y20	Z20	X21	Y21	Z21	X22	Y22	Z22	X23	Y23	Z23	X24	Y24	Z24	X25	Y25	Z25	X26	Y26	Z26	X27	Y27	Z27	X28	Y28	Z28	X29	Y29	Z29	X30	Y30	Z30	X31	Y31	Z31	X32	Y32	Z32	X33	Y33	Z33	X34	Y34	Z34	X35	Y35	Z35	X36	Y36	Z36	X37	Y37	Z37	X38	Y38	Z38	X39	Y39	Z39	X40	Y40	Z40	X41	Y41	Z41	X42	Y42	Z42	X43	Y43	Z43	X44	Y44	Z44	X45	Y45	Z45	X46	Y46	Z46	X47	Y47	Z47	X48	Y48	Z48	
1251	6.2550	465.631378	1351.450304	-20.330354	528.322638	1334.705190	-341.063913	438.172329	1462.577171	-193.434344	465.651997	1282.456100	-190.677984	510.683433	1101.976727	90.843127	746.392464	969.713841	-10.401098	547.048201	1114.056383	-552.341622	781.647986	952.157048	-422.696532	-93.099352	1189.345050	-293.920621	139.377143	1203.542300	-471.198364	95.184194	1218.656793	-64.724035	176.143003	1138.989093	-444.573077	141.453083	1160.054301	-106.588761	-56.970167	1275.408813	-243.123915	-48.446631	1263.109192	-335.068434	71.511077	1100.115755	-48.572287	48.278341	1054.779396	-478.536056	202.610391	1035.392451	-45.863800	290.884089	1022.170381	-50.700046	359.552690	967.173549	-57.697441	304.906101	1055.022555	-61.971236	458.232920	913.426311	-69.465412	471.614171	886.594518	-196.592503	405.094270	759.082804	-55.614941	392.647242	672.629964	-71.277031	341.395871	602.568451	-69.473411	418.360041	665.294315	-100.809395	283.005360	475.698850	-86.997983	217.868055	453.679184	-133.433611	504.299106	433.753862	-127.340663	435.582048	401.553219	-58.519636	150.209275	942.384929	-486.418407	219.639777	893.278494	-477.341553	248.222905	916.003792	-471.623256	256.280040	811.796420	-464.430558	326.548476	703.835525	-435.393935	338.377605	701.103429	-308.469162	31.935198	392.426490	-418.338427	-35.099123	376.543827	-379.830776	129.070654	246.692029	-444.723451	238.139992	618.570441	-453.884666	202.567829	542.584461	-438.010086	131.421019	490.240004	-432.509528	228.829406	523.848710	-415.577177	224.204520	226.349180	-376.105990	-205.228782	950.306693	-264.298878	1.077892	82.080804	-461.007752	-15.588960	81.012618	-62.613678	
1252	6.2600	465.404425	1353.458389	-21.071462	527.956717	1334.430077	-343.014596	438.190621	1462.742177	-194.875977	466.010614	1282.930498	-190.793922	510.513503	1103.577210	89.565080	745.996921	969.931160	-10.592924	544.742288	1114.078291	-551.962834	781.335629	952.952438	-425.129906	-93.322247	1187.840486	-294.424394	139.096692	1203.085938	-470.719488	95.905207	1216.260805	-64.675401	176.209599	1139.345497	-444.345486	142.752151	1157.704143	-106.158471	-57.013423	1273.758827	-243.542356	-48.671396	1261.585389	-335.517403	72.384479	1096.125217	-49.775869	49.971331	1053.970332	-478.473977	202.822755	1029.317360	-46.410588	290.673043	1013.986204	-51.027130	358.028707	957.347246	-58.633551	305.637733	1046.585712	-61.844858	454.664279	900.427934	-70.322062	467.354957	873.948150	-196.258379	402.127033	745.785291	-56.742370	391.571602	659.016655	-72.706015	341.805508	588.054877	-70.692718	417.028810	652.585271	-102.173954	285.666220	462.926558	-87.565197	220.704393	439.841040	-134.166884	507.402280	425.244629	-127.266642	439.177978	391.867286	-58.564628	154.322902	943.745889	-485.865743	224.626961	895.885383	-476.420733	252.754753	919.074164	-470.380737	262.684821	815.082228	-463.430260	334.700600	709.759117	-434.715759	344.087709	706.797094	-308.177181	34.594565	404.888187	-418.042199	-32.435467	391.927026	-379.612141	126.153499	255.614432	-444.670379	244.650893	626.638020	-453.337134	207.759496	550.986719	-437.210636	135.990912	499.948210	-432.037399	233.693630	531.234429	-414.947163	220.424713	231.141902	-376.341958	-205.176910	950.310731	-264.344829	1.073268	82.053402	-461.003415	-15.581679	81.002443	-62.621521	
1253	6.2650	465.334213	1355.308032	-21.993446	527.584206	1334.526324	-345.204911	438.123721	1463.199725	-196.408957	466.516561	1283.549621	-191.054909	510.755434	1105.241220	88.374990	745.713462	970.212981	-10.778495	538.083911	1113.364766	-554.328162	780.704408	953.953503	-427.415985	-93.523714	1186.264509	-294.726766	138.921802	1202.701689	-470.257572	96.571475	1214.022760	-64.443708	176.376864	1139.373656	-443.882807	144.028012	1155.590863	-105.457338	-57.122025	1271.999415	-243.634679	-48.815254	1260.095838	-335.670959	73.429406	1092.227424	-50.530473	51.812592	1053.303404	-478.384174	203.333210	1023.183182	-46.968097	290.668010	1005.887624	-51.450707	356.604394	947.663415	-59.650230	306.517431	1038.094806	-61.942256	451.254876	887.961995	-71.551391	462.411239	861.651732	-197.236011	398.790257	734.212553	-57.333273	391.336865	647.219287	-74.200828	343.921858	574.509763	-73.566762	416.768824	642.217038	-103.904478	287.979965	450.526886	-88.278745	223.396760	426.315894	-134.866199	509.988442	416.392664	-127.372260	442.233390	382.076714	-58.689094	158.463103	945.382504	-485.285241	229.762104	898.916962	-475.623750	257.288632	922.741230	-469.243424	269.449332	818.854636	-462.601417	343.620178	716.677958	-434.135466	350.596552	712.982533	-307.950023	38.209931	417.643032	-417.450401	-28.669402	407.413867	-379.249253	123.953985	264.727714	-444.642599	251.642927	635.097701	-452.681398	213.635682	559.955974	-436.699713	141.140468	510.080751	-431.500110	239.426217	539.823171	-414.902419	216.982921	236.095614	-376.551671	-205.141339	950.313716	-264.317250	1.084312	82.042944	-461.003259	-15.564223	80.994126	-62.620071	
1254	6.2700	465.512625	1357.025689	-22.952624	527.162579	1335.039325	-347.526020	438.098302	1463.584927	-197.580574	467.093870	1284.289243	-191.432737	510.745652	1106.903771	86.954973	745.556652	970.605375	-11.138982	537.527730	1113.415821	-553.061542	779.798718	954.574950	-429.595047	-93.695034	1184.743408	-294.741003	138.726378	1202.354648	-469.584496	97.256757	1212.121320	-63.992165	176.720746	1139.443852	-443.297569	145.186955	1153.632015	-104.284573	-57.248737	1270.270832	-243.366156	-48.872382	1258.707519	-335.476001	74.609175	1088.309594	-51.097505	53.510308	1052.916040	-478.092614	203.797107	1017.125491	-47.196927	290.771141	997.480870	-51.774959	355.285352	938.061841	-60.662976	307.300554	1029.820836	-62.145165	448.011990	875.631257	-72.797467	457.142760	849.993633	-198.479122	396.052146	723.660366	-57.924382	391.331397	636.711690	-74.638616	344.972441	562.837153	-76.762743	416.468976	632.352675	-105.317718	289.772318	438.363197	-88.715304	224.745686	413.402908	-134.928743	511.995838	407.176960	-127.358632	444.590125	372.249507	-58.781151	162.621042	947.161153	-484.668061	235.047830	902.486465	-474.904517	261.944443	926.949378	-468.234489	276.683550	823.460039	-461.896810	352.872721	724.292975	-433.684594	358.276312	719.475082	-307.398634	42.798008	430.481284	-416.547799	-23.749409	422.845257	-378.804627	122.491056	273.898579	-444.591643	259.103649	643.915193	-452.026011	220.051953	569.434480	-436.136436	146.836504	520.514651	-430.897435	245.711661	548.839781	-414.681400	214.205263	240.976108	-376.620925	-205.102474	950.347491	-264.284363	1.101241	82.057234	-460.990714	-15.556397	80.985512	-62.636598	
1255	6.2750	465.900723	1358.667629	-23.975998	527.590370	1336.986372	-351.277977	438.132846	1464.203796	-198.622215	467.701928	1285.224920	-192.106143	510.488622	1108.270858	85.191045	745.465974	970.965470	-11.283388	534.782576	1112.974486	-553.143601	779.009605	955.171588	-430.845295	-93.725001	1183.285302	-294.463118	138.674177	1202.115623	-468.888738	97.819509	1210.535533	-63.403448	176.898123	1139.396713	-442.321292	146.031694	1151.775140	-102.753546	-57.408698	1268.614361	-242.700006	-48.920259	1257.426381	-334.850731	75.834982	1084.416195	-51.291431	55.334181	1052.637881	-477.862891	204.229488	1011.110746	-47.209608	290.777481	989.509316	-52.091812	353.910110	929.039301	-61.496702	307.980752	1021.550524	-62.357921	445.020095	864.703904	-73.924858	451.909266	839.262222	-198.941436	393.900257	713.601495	-58.911716	390.502565	626.576171	-75.620448	345.208666	551.996338	-78.090907	415.500854	622.573088	-106.514698	290.954487	426.358660	-89.101409	226.527146	399.746888	-136.031939	513.472547	397.728962	-127.342906	446.437529	361.981293	-58.844610	166.661653	949.311452	-484.056762	240.447859	906.854429	-474.268667	266.592740	932.040258	-467.278273	284.410674	828.915278	-461.292017	362.220895	732.537199	-433.317382	366.478574	726.682102	-306.985582	48.517231	443.196554	-415.361703	-17.758865	438.117542	-378.376448	121.922700	283.010353	-444.367578	266.929036	652.878764	-450.758832	227.035771	579.212837	-435.583552	153.103549	531.222582	-430.329301	252.424442	558.134376	-414.346496	211.959063	246.062083	-376.493448	-205.061426	950.400268	-264.201374	1.120288	82.069530	-461.018871	-15.515951	80.989320	-62.619985	
1256	6.2800	466.482790	1360.318598	-25.139754	527.459695	1338.804868	-353.166761	438.090123	1464.970055	-199.534846	468.340531	1286.245692	-193.024441	510.704175	1109.743842	83.802692	745.445320	971.338756	-11.379131	532.122580	1112.506521	-553.308372	778.129259	955.610813	-432.139723	-93.621509	1181.958882	-294.060548	138.724308	1201.979614	-468.125915	98.340089	1209.312212	-62.482974	177.139300	1139.323693	-441.288509	146.371972	1150.247558	-100.163029	-57.626868	1267.075905	-241.758356	-48.962903	1256.263069	-333.882866	77.043902	1080.720581	-51.249289	56.956169	1052.633640	-477.563251	204.472349	1005.098834	-46.998511	290.581198	981.846037	-52.401591	352.421872	920.156778	-62.545329	308.179191	1013.185397	-63.112214	440.966258	854.719417	-76.177358	445.430986	829.693868	-200.390059	391.499985	703.794977	-60.099819	389.001274	616.662577	-76.441855	344.637873	541.476858	-77.837793	413.791518	612.860244	-107.521897	291.464901	414.459537	-89.248408	227.557071	387.110708	-136.134084	514.525563	387.694872	-127.439844	447.834708	351.480758	-58.910784	170.747672	951.976437	-483.482370	245.961875	911.944314	-473.698929	271.183281	938.018689	-466.230714	292.484060	835.548111	-460.917468	371.705132	741.471757	-433.166923	374.378837	735.214839	-306.318492	54.995416	455.710334	-414.323376	-10.715355	453.042290	-377.960158	122.100023	292.271433	-444.065852	275.034252	662.389371	-450.062416	234.222411	589.088537	-435.045395	159.893501	542.059662	-429.799569	259.517756	568.053120	-414.129395	210.178955	251.079227	-376.295377	-205.023732	950.427760	-264.090824	1.130655	82.085382	-460.969747	-15.515768	80.988758	-62.625364	
